<?xml version="1.0" encoding="utf-8"?>
<!-- Generator: Adobe Illustrator 19.0.0, SVG Export Plug-In . SVG Version: 6.00 Build 0)  -->
<svg version="1.2" baseProfile="tiny" id="Layer_1" xmlns="http://www.w3.org/2000/svg" xmlns:xlink="http://www.w3.org/1999/xlink"
	 x="0px" y="0px" viewBox="0 0 370 190" xml:space="preserve">
<g id="XMLID_1_">
	<path id="XMLID_4_" fill="#66DAE5" d="M129.4,190H61.3L179,22.8c29.4-33.8,54.2-25.6,73.4-3.5L370,190H154.5l34.4-47.9l78.6,0.6
		L215.7,67L129.4,190z"/>
	<path id="XMLID_12_" fill="#66DAE5" d="M70,77.5l70.4,0l-26.9,38.2l-41.2,0.3c-24.1,2.3-14.9,27.8-2.7,26.6l25.2-0.2L61.3,190
		C-26,182.1-4.3,95.7,30,95C-12.7,76.9-3.3,6.6,61.3,4.7h139.1l-42.8,48.5l-85.2-0.7C49.7,55.4,57.8,77.1,70,77.5z"/>
</g>
</svg>
