<?xml version="1.0" standalone="no"?>
<!DOCTYPE svg PUBLIC "-//W3C//DTD SVG 20010904//EN"
 "http://www.w3.org/TR/2001/REC-SVG-20010904/DTD/svg10.dtd">
<svg version="1.0" xmlns="http://www.w3.org/2000/svg"
 width="1480.000000pt" height="1480.000000pt" viewBox="0 0 1480.000000 1480.000000"
 preserveAspectRatio="xMidYMid meet">
<metadata>
Created by potrace 1.11, written by Peter Selinger 2001-2013
</metadata>
<g transform="translate(0.000000,1480.000000) scale(0.100000,-0.100000)"
fill="#000000" stroke="none">
<path d="M8597 11194 c-2 -2 -64 -12 -132 -20 -21 -3 -43 -8 -48 -11 -4 -3
-21 -7 -36 -9 -16 -3 -66 -19 -112 -35 -46 -17 -90 -31 -96 -32 -7 0 -13 -4
-13 -9 0 -4 -3 -7 -7 -6 -5 1 -37 -12 -73 -29 l-65 -31 -2785 1 c-2548 0
-2917 -2 -3021 -18 -19 -2 -56 -7 -84 -9 -27 -3 -61 -8 -75 -10 -14 -3 -41 -7
-60 -10 -19 -2 -78 -14 -130 -26 -52 -12 -102 -23 -110 -25 -8 -2 -38 -10 -66
-20 -28 -9 -57 -18 -65 -19 -8 -2 -25 -8 -39 -13 -14 -6 -45 -18 -70 -26 -95
-33 -293 -124 -298 -138 -2 -5 -8 -9 -14 -9 -17 0 -156 -88 -258 -163 -120
-89 -299 -266 -385 -382 -17 -22 -33 -41 -37 -43 -5 -2 -8 -10 -8 -17 0 -8 -6
-18 -13 -22 -26 -16 -146 -237 -200 -368 -44 -107 -104 -319 -113 -400 -1 -11
-5 -40 -9 -65 -3 -25 -8 -76 -11 -115 -2 -38 -6 -82 -8 -97 -2 -16 1 -28 5
-28 5 0 5 -11 0 -23 -5 -13 -5 -30 -1 -37 5 -8 5 -21 0 -31 -5 -9 -7 -19 -4
-22 3 -3 8 -25 10 -49 2 -24 6 -61 9 -83 4 -22 8 -53 10 -70 10 -67 75 -303
95 -345 4 -8 30 -62 58 -120 42 -88 140 -252 161 -270 3 -3 24 -27 46 -55 86
-109 227 -236 370 -332 75 -50 252 -143 273 -143 34 0 3 -9 -53 -15 -33 -3
-87 -13 -120 -22 -33 -8 -64 -16 -70 -17 -5 -2 -27 -10 -49 -19 -21 -9 -42
-17 -47 -17 -5 0 -9 -5 -9 -10 0 -6 -4 -9 -8 -8 -23 8 -268 -162 -255 -176 4
-3 1 -6 -6 -6 -19 0 -126 -115 -188 -202 -21 -29 -40 -55 -44 -58 -12 -10
-106 -176 -136 -240 -51 -110 -61 -133 -82 -195 -26 -72 -68 -226 -76 -275 -3
-19 -8 -42 -10 -50 -6 -19 -13 -61 -22 -130 -8 -63 -9 -449 0 -495 3 -16 8
-50 12 -75 5 -34 36 -177 50 -230 14 -50 24 -79 53 -155 19 -49 38 -95 43
-101 5 -6 6 -14 2 -17 -3 -4 -1 -7 5 -7 6 0 13 -13 17 -30 4 -16 10 -32 14
-35 5 -2 23 -34 42 -70 18 -36 37 -65 41 -65 4 0 8 -4 8 -10 0 -5 14 -29 30
-52 17 -24 38 -54 48 -68 43 -63 259 -284 341 -350 72 -58 255 -180 268 -180
7 0 13 -4 13 -10 0 -5 6 -10 14 -10 8 0 16 -5 18 -11 2 -5 10 -11 18 -13 8 -1
26 -8 40 -16 25 -14 148 -74 185 -91 27 -12 79 -31 83 -30 1 1 15 -5 30 -12
49 -26 288 -104 347 -114 17 -3 38 -9 48 -14 9 -5 17 -8 17 -5 0 2 24 -2 53
-10 28 -8 68 -17 87 -20 19 -3 42 -7 50 -9 8 -3 32 -7 54 -11 21 -3 48 -8 60
-10 26 -6 78 -13 131 -19 22 -2 40 -4 40 -5 0 -10 287 -14 1492 -17 l1412 -4
18 28 c23 38 176 257 183 263 3 3 23 32 45 65 44 66 41 62 90 125 19 25 35 51
35 58 0 6 4 12 8 12 4 0 16 15 27 33 10 17 23 37 27 42 4 6 19 24 33 41 14 18
25 35 25 39 0 3 6 12 13 19 6 8 18 22 24 32 7 11 51 73 97 139 46 66 99 142
118 168 18 27 39 55 46 62 6 7 12 16 12 20 0 6 47 72 60 85 5 5 77 110 95 139
6 9 13 18 16 21 5 5 59 83 150 215 19 28 37 52 40 55 3 3 36 50 74 105 95 138
172 248 182 260 5 6 24 34 43 63 19 28 38 52 42 52 5 0 8 5 8 11 0 11 50 82
63 87 4 2 7 8 7 14 0 6 14 27 30 48 17 21 30 42 30 48 0 6 4 12 8 14 5 2 23
26 42 53 18 28 36 52 39 55 11 10 51 69 51 76 0 4 7 14 15 23 9 9 55 72 102
141 48 69 89 127 92 130 4 3 11 13 16 22 6 9 55 80 110 158 55 78 105 148 110
157 6 9 15 24 22 32 11 15 134 189 165 235 7 10 19 24 26 32 6 7 12 15 12 19
0 8 53 79 63 83 4 2 7 9 7 15 0 6 7 19 17 29 9 10 21 27 27 37 14 24 222 321
241 343 7 9 22 29 31 45 37 58 159 228 166 231 5 2 8 8 8 12 0 10 129 192 143
201 5 3 8 10 7 14 -1 4 7 18 19 31 12 13 21 29 21 34 0 6 3 10 8 10 4 0 12 9
17 19 9 18 145 214 163 236 4 6 19 26 33 46 27 41 27 41 75 -31 39 -58 178
-262 219 -320 17 -25 60 -88 95 -140 36 -52 68 -96 72 -98 5 -2 8 -9 8 -16 0
-7 8 -21 18 -32 10 -10 54 -73 99 -139 119 -178 181 -269 190 -280 5 -5 35
-50 68 -100 33 -49 63 -91 67 -93 4 -2 15 -19 24 -38 9 -19 20 -34 25 -34 5 0
9 -5 9 -11 0 -6 13 -28 28 -48 16 -20 32 -44 35 -53 4 -10 11 -18 17 -18 5 0
10 -5 10 -10 0 -6 20 -38 44 -73 24 -34 63 -91 87 -127 24 -36 46 -67 49 -70
3 -3 46 -66 95 -140 50 -74 93 -137 96 -140 6 -5 53 -74 82 -122 9 -16 26 -39
37 -50 11 -12 20 -27 20 -34 0 -7 4 -14 8 -16 5 -1 57 -75 117 -163 59 -88
128 -188 151 -221 24 -34 44 -67 44 -73 0 -6 4 -11 9 -11 7 0 68 -87 80 -115
2 -5 9 -15 15 -22 27 -30 36 -43 36 -48 0 -3 9 -15 20 -27 11 -12 20 -28 20
-35 0 -7 5 -13 10 -13 6 0 10 -6 10 -14 0 -15 0 -15 -1605 -1 -1232 10 -1519
12 -1532 7 -7 -2 -13 -9 -13 -15 0 -6 -10 -21 -21 -33 -12 -13 -27 -32 -33
-43 -20 -35 -210 -296 -218 -299 -4 -2 -8 -8 -8 -14 0 -5 -21 -37 -47 -71 -26
-34 -59 -79 -75 -99 -15 -20 -28 -39 -28 -42 0 -3 -6 -14 -14 -23 -20 -25 -74
-99 -115 -158 -19 -28 -37 -52 -40 -55 -4 -3 -22 -27 -40 -55 -19 -27 -38 -52
-41 -55 -3 -3 -16 -21 -28 -40 -11 -20 -29 -45 -39 -57 -10 -12 -24 -29 -30
-40 -7 -10 -53 -74 -103 -143 -50 -69 -102 -143 -117 -164 -14 -22 -30 -44
-35 -50 -5 -6 -26 -36 -48 -66 -192 -266 -263 -365 -267 -377 -4 -11 787 -13
4301 -13 l4307 0 -23 33 c-13 17 -25 34 -28 37 -3 3 -9 13 -15 22 -26 44 -110
163 -117 166 -4 2 -8 10 -8 18 0 8 -4 14 -10 14 -5 0 -10 6 -10 13 0 8 -9 22
-20 32 -11 10 -20 24 -20 31 0 7 -4 14 -8 16 -5 2 -33 39 -62 83 -30 44 -58
85 -62 90 -5 6 -53 75 -107 155 -55 80 -104 150 -110 157 -6 7 -11 16 -11 22
0 5 -3 11 -7 13 -5 2 -46 59 -92 128 -47 69 -87 127 -91 130 -3 3 -31 43 -63
90 -111 166 -132 195 -139 198 -5 2 -8 9 -8 16 0 6 -13 27 -28 46 -25 31 -64
86 -97 139 -5 9 -13 18 -16 21 -3 3 -23 32 -44 65 -22 33 -42 62 -45 65 -14
14 -70 100 -70 108 0 6 -4 12 -8 14 -5 2 -36 44 -70 93 -33 50 -78 115 -99
145 -22 30 -69 99 -106 153 -37 54 -83 120 -102 146 -19 27 -35 52 -35 55 0 4
-7 14 -15 23 -9 8 -36 45 -60 82 -24 36 -80 118 -125 181 -44 63 -83 122 -87
130 -4 8 -17 26 -30 40 -13 14 -23 31 -23 38 0 7 -7 15 -15 18 -8 4 -15 12
-15 19 0 8 -6 20 -13 27 -22 23 -89 118 -83 118 3 0 -2 9 -11 19 -24 26 -30
35 -88 121 -27 41 -53 80 -58 85 -10 13 -100 145 -154 225 -24 36 -52 76 -63
88 -11 13 -20 30 -20 38 0 8 -4 14 -10 14 -5 0 -17 14 -26 32 -9 18 -22 38
-28 45 -21 24 -32 39 -105 148 -41 61 -77 112 -81 115 -4 3 -13 16 -20 29 -7
14 -17 30 -22 35 -5 6 -88 126 -184 266 -96 140 -181 263 -189 273 -8 9 -15
22 -15 27 0 6 -4 10 -10 10 -5 0 -10 6 -10 13 0 8 -9 22 -20 32 -11 10 -20 24
-20 31 0 7 -3 14 -7 16 -8 3 -44 54 -144 203 -30 44 -56 82 -59 85 -3 3 -19
25 -36 50 -17 25 -55 81 -86 125 -30 44 -81 118 -113 165 -32 47 -85 123 -118
170 -60 86 -144 209 -162 238 -10 16 -20 29 -42 56 -7 8 -13 20 -13 26 0 5 -3
10 -8 10 -4 0 -12 9 -17 19 -6 11 -89 133 -185 272 -96 140 -196 285 -223 324
-26 38 -54 79 -62 90 -7 11 -36 52 -63 90 -67 94 -130 163 -258 285 -137 129
-319 272 -386 302 -16 7 -28 16 -28 20 0 5 -6 8 -14 8 -7 0 -19 7 -26 15 -7 9
-15 13 -18 10 -3 -3 -12 1 -21 8 -9 7 -43 25 -76 39 -33 15 -81 36 -107 47
-26 12 -55 21 -64 21 -8 0 -23 4 -33 9 -10 6 -28 12 -42 14 -13 2 -31 7 -39
10 -23 9 -113 24 -138 22 -12 -1 -22 1 -22 4 0 6 -257 11 -263 5z m-3882
-2109 c303 -2 552 -5 555 -5 3 -1 28 -1 55 0 61 1 -10 2 518 -3 246 -2 450 -7
453 -9 3 -3 -2 -13 -11 -21 -8 -9 -15 -18 -15 -20 0 -5 -144 -211 -173 -248
-7 -8 -37 -51 -67 -95 -30 -43 -58 -83 -62 -89 -5 -5 -40 -55 -78 -110 -38
-55 -74 -107 -80 -115 -6 -8 -38 -53 -70 -100 -33 -47 -67 -94 -76 -105 -8
-11 -22 -31 -31 -45 -14 -24 -18 -25 -73 -20 -33 3 -66 3 -74 0 -8 -3 -117 -3
-241 0 -124 3 -233 2 -242 -1 -9 -3 -33 -3 -53 1 -20 4 -44 4 -53 1 -9 -3 -64
-4 -122 -1 -58 3 -113 3 -122 -1 -8 -3 -37 -2 -63 1 -26 3 -55 4 -63 1 -9 -4
-118 -4 -242 -1 -124 3 -233 2 -242 -1 -9 -3 -33 -3 -53 1 -20 4 -44 4 -53 1
-9 -3 -64 -4 -122 -1 -58 3 -113 3 -122 -1 -8 -3 -37 -2 -63 1 -26 3 -55 4
-63 1 -9 -4 -118 -4 -242 -1 -124 3 -233 2 -242 -1 -9 -3 -33 -3 -53 1 -20 4
-44 4 -53 1 -17 -6 -239 4 -272 12 -110 29 -229 121 -300 233 -78 122 -102
286 -60 409 28 80 80 150 155 206 33 24 159 88 184 93 6 2 29 8 51 14 22 6 58
14 80 18 22 3 42 8 44 10 2 2 297 1 655 -2 358 -3 899 -7 1201 -9z m-179
-2521 c-3 -7 -45 -69 -95 -138 -50 -70 -91 -131 -91 -136 0 -5 -4 -10 -8 -12
-4 -1 -37 -45 -72 -96 -61 -88 -109 -153 -128 -177 -5 -6 -11 -15 -13 -20 -2
-6 -31 -47 -64 -93 -33 -46 -66 -94 -73 -108 -7 -13 -17 -24 -23 -24 -5 0 -9
-5 -9 -11 0 -6 -13 -28 -30 -49 -16 -21 -30 -42 -30 -48 0 -6 -3 -12 -8 -14
-10 -4 -82 -106 -82 -117 0 -5 -6 -11 -12 -13 -7 -2 -168 -6 -358 -7 -190 -1
-433 -4 -540 -5 -192 -2 -231 3 -305 35 -62 27 -140 94 -185 159 -13 19 -27
37 -30 40 -5 4 -31 56 -35 70 -1 3 -5 12 -8 20 -42 97 -57 229 -37 324 26 127
123 255 236 311 32 17 61 33 62 38 2 4 10 7 17 7 8 0 26 5 42 11 15 7 35 13
43 14 8 1 34 7 57 14 70 19 136 21 908 27 407 3 740 6 741 7 1 1 32 2 68 2 45
0 65 -4 62 -11z"/>
</g>
</svg>
